# xmcd
#
# Track frame offsets:
#	150
#	19645
#	39890
#	54685
#	75430
#	89455
#	102360
#	118365
#	133895
#	147840
#	166140
#
# Disc length: 2435 seconds
#
# Revision: 0
# Processed by: cddbd v1.5.2PL0 Copyright (c) Steve Scherf et al.
# Submitted via: audiograbber 1.83.01
#
DISCID=8d09810b
DTITLE=關正傑 - 關正傑
DYEAR=1984
DGENRE=
TTITLE0=曾為你'個夢
TTITLE1=靜
TTITLE2=情若老
TTITLE3=故夢
TTITLE4=一把聲音
TTITLE5=香江歲月
TTITLE6=偎依黃昏裡
TTITLE7=痴到情之最
TTITLE8=寶貝兒
TTITLE9=是你是你是你
TTITLE10=舞會
EXTD=
EXTT0=
EXTT1=
EXTT2=
EXTT3=
EXTT4=
EXTT5=
EXTT6=
EXTT7=
EXTT8=
EXTT9=
EXTT10=
PLAYORDER=
